<?xml version="1.0" encoding="UTF-8" standalone="no"?>
<svg
   xmlns:dc="http://purl.org/dc/elements/1.1/"
   xmlns:cc="http://creativecommons.org/ns#"
   xmlns:rdf="http://www.w3.org/1999/02/22-rdf-syntax-ns#"
   xmlns:svg="http://www.w3.org/2000/svg"
   xmlns="http://www.w3.org/2000/svg"
   xmlns:xlink="http://www.w3.org/1999/xlink"
   id="svg7"
   xml:space="preserve"
   viewBox="0 0 1024 1024"
   y="0px"
   x="0px"
   version="1.1"><metadata
     id="metadata13"><rdf:RDF><cc:Work
         rdf:about=""><dc:format>image/svg+xml</dc:format><dc:type
           rdf:resource="http://purl.org/dc/dcmitype/StillImage" /></cc:Work></rdf:RDF></metadata><defs
     id="defs11" /><g
     id="g3"
     transform="matrix(1.5,0,0,1.5,512,512)"><path
       style="fill:#66d2a9"
       d="m 152.4,-201.9 c 46.6,26 86.9,68.5 97.2,116.9 10.4,48.3 -9.3,102.5 -32.2,150.3 -22.9,47.8 -49,89.1 -85.8,121.8 -36.8,32.8 -84.2,56.8 -135.5,62.2 -51.4,5.4 -106.6,-7.9 -148.6,-38.9 -42,-31 -70.8,-79.8 -87.5,-132.2 -16.8,-52.4 -21.5,-108.6 -2.2,-153.4 19.4,-44.8 62.9,-78.2 107.3,-105 44.4,-26.7 89.6,-46.8 138.7,-52 49.1,-5.3 102,4.2 148.6,30.3 z"
       id="path" /></g><animate
     fill="freeze"
     values="M206.8,-73.4C230.5,5.5,186.1,100.2,115.9,148.7C45.7,197.1,-50.4,199.3,-120.9,151.5C-191.4,103.8,-236.5,6.2,-212.1,-73.7C-187.7,-153.6,-93.8,-215.8,-1.1,-215.5C91.6,-215.1,183.2,-152.2,206.8,-73.4Z;    M182.4,-49.1C211.4,30,192.7,134.7,130.2,180.4C67.8,226,-38.4,212.5,-103.7,160.8C-169,109.1,-193.4,19.2,-169.3,-53.2C-145.2,-125.5,-72.6,-180.3,2.1,-180.9C76.7,-181.6,153.4,-128.2,182.4,-49.1Z;       M206.5,-62.1C234.2,18.2,200.3,123.6,127.4,176.9C54.5,230.3,-57.4,231.6,-130,178.9C-202.6,126.2,-235.9,19.4,-207.6,-61.6C-179.4,-142.6,-89.7,-197.8,-0.2,-197.8C89.4,-197.7,178.8,-142.4,206.5,-62.1Z;    M182.7,-58.2C208.7,20.8,182.5,118,115.8,168.8C49,219.5,-58.4,223.8,-119.6,176.5C-180.9,129.2,-196,30.3,-168.4,-50.9C-140.8,-132.1,-70.4,-195.5,4,-196.8C78.3,-198.1,156.6,-137.2,182.7,-58.2Z;    M205.7,-67.2C231.4,12.1,192.7,112.1,125.9,156.6C59.2,201.2,-35.7,190.4,-103.3,141.4C-171,92.4,-211.5,5.3,-189.8,-68.7C-168,-142.6,-84,-203.3,3,-204.3C90,-205.3,180.1,-146.5,205.7,-67.2Z;      M206.8,-73.4C230.5,5.5,186.1,100.2,115.9,148.7C45.7,197.1,-50.4,199.3,-120.9,151.5C-191.4,103.8,-236.5,6.2,-212.1,-73.7C-187.7,-153.6,-93.8,-215.8,-1.1,-215.5C91.6,-215.1,183.2,-152.2,206.8,-73.4Z"
     keySplines="0.9 0.1 0.1 0.9;0.9 0.1 0.1 0.9;0.9 0.1 0.1 0.9;0.9 0.1 0.1 0.9;0.9 0.1 0.1 0.9"
     calcMode="spline"
     keyTimes="0; 0.2; 0.4; 0.6; 0.8; 1"
     attributeName="d"
     repeatCount="indefinite"
     dur="20s"
     attributeType="XML"
     xlink:href="#path" /><path
     id="path5"
     transform="translate(153.6 243.2) scale(0.7)"
     fill="#000000"
     d="m586.87109 331.89453c-1.85618 0-3.31455 0.66221-4.50781 1.85547-1.32584 1.32584-1.85742 2.78422-1.85742 4.50781v60.99024c0 10.20898 3.58069 18.82676 10.74023 25.98633 7.15955 7.29212 15.77735 10.87109 25.98633 10.87109 10.20899 0 18.82679-3.57897 25.98633-10.87109 7.15955-7.15956 10.87305-15.77735 10.87305-25.98633 0-10.0764-3.7135-18.82874-10.87305-25.98828-7.15954-7.15955-15.77734-10.73829-25.98633-10.73829-9.1483 0-17.23625 2.91653-23.99804 8.88282v-33.14649c0-1.72359-0.66244-3.18197-1.98829-4.50781-1.19325-1.19326-2.65141-1.85547-4.375-1.85547zm85.86524 0c-1.98877 0-3.58018 0.66221-4.77344 1.85547-1.32584 1.32584-1.85742 2.91726-1.85742 4.77344v72.39062c0 4.77303 0.79593 9.01616 2.51953 12.72852 1.59101 3.71235 3.9779 6.62866 7.02734 8.75 3.04943 2.12135 6.49686 3.05078 10.3418 3.05078h0.26563c2.65169 0 4.77249-0.53158 6.49609-1.85742 1.59101-1.19326 2.51953-2.78468 2.51953-4.77344 0-1.85618-0.66393-3.44564-1.72461-4.77148-1.06067-1.19326-2.5186-1.85743-4.24219-1.85743h-3.31445c-1.98876 0-3.58018-1.06029-4.77344-3.18164-1.32584-2.12135-1.85547-4.77329-1.85547-8.08789v-72.39062c0-1.85618-0.66417-3.4476-1.85742-4.77344-1.32585-1.19326-2.91531-1.85547-4.77148-1.85547zm-407.78125 1.72266c-2.38651 0-4.50883 0.92875-6.23242 2.65234-1.72358 1.72359-2.51954 3.7131-2.51954 6.09961 0 2.38652 0.79596 4.50688 2.51954 6.23047 1.72359 1.72359 3.84591 2.51953 6.23242 2.51953 2.3865 0 4.37403-0.79594 6.09765-2.51953 1.72357-1.72359 2.65235-3.84395 2.65235-6.23047 0-2.38651-0.92878-4.37602-2.65235-6.09961-1.72362-1.72359-3.71115-2.65234-6.09765-2.65234zm120.56836 0c-2.38652 0-4.50882 0.92875-6.23242 2.65234-1.72357 1.72359-2.51954 3.7131-2.51954 6.09961 0 2.38652 0.79597 4.50688 2.51954 6.23047 1.7236 1.72359 3.8459 2.51953 6.23242 2.51953 2.3865 0 4.37404-0.79594 6.09765-2.51953 1.72358-1.72359 2.65235-3.84395 2.65235-6.23047 0-2.38651-0.92877-4.37602-2.65235-6.09961-1.72361-1.72359-3.71115-2.65234-6.09765-2.65234zm83.27929 0c-2.38651 0-4.50883 0.92875-6.23242 2.65234-1.72358 1.72359-2.51758 3.7131-2.51758 6.09961 0 2.38652 0.794 4.50688 2.51758 6.23047 1.72359 1.72359 3.84591 2.51953 6.23242 2.51953 2.3865 0 4.37404-0.79594 6.09766-2.51953 1.72357-1.72359 2.65234-3.84395 2.65234-6.23047 0-2.38651-0.92877-4.37602-2.65234-6.09961-1.72362-1.72359-3.71116-2.65234-6.09766-2.65234zm-46.52343 6.23242c-1.85618 0-3.44565 0.66243-4.77149 1.98828-1.32584 1.32584-1.85742 2.78445-1.85742 4.64063v61.78515c0 7.5573 2.65172 13.92124 7.95508 19.22461 5.30337 5.30337 11.66731 7.95508 19.22461 7.95508 1.85618 0 3.31477-0.53158 4.64062-1.85742 1.32584-1.32584 1.98828-2.91726 1.98828-4.77344s-0.66244-3.31282-1.98828-4.63867c-1.32585-1.32584-2.78444-1.99024-4.64062-1.99024-3.84494 0-7.15887-1.3251-9.81055-4.10937-2.78427-2.65168-4.11133-5.96561-4.11133-9.81055v-31.1582h11.80078c1.59101 0 3.04893-0.5294 4.24219-1.72266 1.06067-1.06067 1.72461-2.52054 1.72461-4.24414 0-1.59101-0.66394-3.04894-1.72461-4.24219-1.19326-1.06068-2.65118-1.72265-4.24219-1.72265h-11.80078v-18.69531c0-1.85618-0.66244-3.31479-1.98828-4.64063-1.32584-1.32585-2.78444-1.98828-4.64062-1.98828zm-96.30469 21.3457c-9.41348 0-17.36884 3.31415-23.99805 9.94336s-9.94336 14.58435-9.94336 23.86524v34.07421c0 1.85618 0.66244 3.4476 1.98828 4.77344s2.91703 1.85547 4.64063 1.85547c1.85618 0 3.4476-0.52963 4.77344-1.85547s1.85547-2.91725 1.85547-4.77344v-34.07421c0-5.56853 2.12208-10.47366 6.0996-14.45118 3.97754-4.11011 8.88287-6.09959 14.58399-6.09961 5.70112 0 10.47387 1.9895 14.58398 6.09961 3.97753 3.97752 5.9668 8.88265 5.9668 14.45118v34.20703c0 1.7236 0.66244 3.31478 1.98828 4.64062s2.91703 1.98828 4.64063 1.98828c1.85618 0 3.44759-0.66244 4.77343-1.98828s1.85547-2.91724 1.85547-4.77344v-34.07421c0-9.28089-3.31392-17.23603-9.81054-23.86524-6.62921-6.62921-14.71716-9.94336-23.99805-9.94336zm202.52148 1.19336c-10.0764 0-18.82678 3.71155-25.98632 10.8711-7.15955 7.15954-10.73829 15.7793-10.73829 25.98828s3.57874 18.82677 10.73829 25.98633c7.15954 7.15953 15.90992 10.73828 25.98632 10.73828 9.14831 0 17.23648-2.91654 24.13086-8.88282v2.51954c0 1.85617 0.52963 3.31455 1.85547 4.50781 1.19326 1.32584 2.65163 1.85547 4.50781 1.85547 1.7236 0 3.18198-0.52963 4.50782-1.85547 1.19326-1.19326 1.85742-2.65165 1.85742-4.50781v-30.36133c0-10.20898-3.58092-18.82874-10.87305-25.98828-7.15955-7.15955-15.77735-10.8711-25.98633-10.8711zm202.44141 0c-10.20898 0-18.82677 3.71155-25.98633 10.8711-7.15955 7.15954-10.73828 15.7793-10.73828 25.98828s3.57873 18.82677 10.73828 25.98633c7.15956 7.15953 15.77735 10.73828 25.98633 10.73828 8.75057 0 16.44135-2.65218 23.20312-8.22071 1.45844-1.06068 2.12156-2.51858 2.38672-4.24218 0.13259-1.85618-0.26572-3.31501-1.45898-4.77344-1.06069-1.32584-2.51861-2.12132-4.24219-2.25391-1.72361-0.13258-3.31478 0.26573-4.64062 1.45899-4.50786 3.57977-9.54693 5.30273-15.24805 5.30273-6.62921 0-12.33025-2.25236-16.9707-7.02539-4.77303-4.64044-7.02735-10.34149-7.02735-16.9707s2.25432-12.33049 7.02735-17.10352c4.64045-4.64045 10.34149-7.02734 16.9707-7.02734 5.43595 0 10.3415 1.7225 14.7168 5.03711 4.24269 3.3146 7.02789 7.55772 8.48632 12.72851h-23.20312c-1.7236 0-3.31454 0.66416-4.50781 1.85742-1.19326 1.19325-1.85547 2.78422-1.85547 4.50782 0 1.72359 0.66221 3.31455 1.85547 4.50781 1.19327 1.19326 2.78421 1.85547 4.50781 1.85547h30.49414c1.72357 0 3.18172-0.66221 4.375-1.85547 1.32584-1.19326 1.99024-2.78422 1.99024-4.50781 0-10.20898-3.71351-18.82874-10.87305-25.98828-7.15953-7.15955-15.77735-10.8711-25.98633-10.8711zm-465.98242 0.53125c-1.98876 0-3.58043 0.66221-4.90625 1.85547-1.32586 1.32584-1.85547 2.91749-1.85547 4.90625v59c0 1.98876 0.52961 3.57846 1.85547 4.9043 1.32582 1.32584 2.91749 1.85742 4.90625 1.85742 1.98875 0 3.57845-0.53158 4.9043-1.85742 1.19328-1.32584 1.85742-2.91554 1.85742-4.9043v-59c0-1.98876-0.66414-3.58041-1.85742-4.90625-1.32586-1.19326-2.91555-1.85547-4.9043-1.85547zm120.56836 0c-1.98876 0-3.58042 0.66221-4.90625 1.85547-1.32586 1.32584-1.85547 2.91749-1.85547 4.90625v59c0 1.98876 0.52961 3.57846 1.85547 4.9043 1.32583 1.32584 2.91749 1.85742 4.90625 1.85742 1.98874 0 3.57844-0.53158 4.90429-1.85742 1.19327-1.32584 1.85743-2.91554 1.85743-4.9043v-59c0-1.98876-0.66416-3.58041-1.85743-4.90625-1.32585-1.19326-2.91555-1.85547-4.90429-1.85547zm83.27929 0c-1.98876 0-3.58043 0.66221-4.90625 1.85547-1.32586 1.32584-1.85546 2.91749-1.85546 4.90625v59c0 1.98876 0.5296 3.57846 1.85546 4.9043 1.32582 1.32584 2.91749 1.85742 4.90625 1.85742 1.98875 0 3.58041-0.53158 4.90625-1.85742 1.19328-1.32584 1.85547-2.91554 1.85547-4.9043v-59c0-1.98876-0.66219-3.58041-1.85547-4.90625-1.32584-1.19326-2.9175-1.85547-4.90625-1.85547zm59.69336 12.19727c6.62921 0 12.33027 2.38712 16.97071 7.16015 4.77304 4.64045 7.16015 10.3415 7.16015 16.97071s-2.38711 12.33026-7.16015 16.9707c-4.64044 4.77303-10.3415 7.02539-16.97071 7.02539s-12.33025-2.25236-16.9707-7.02539c-4.77303-4.64044-7.02734-10.34149-7.02734-16.9707s2.25431-12.33026 7.02734-16.97071c4.64045-4.77303 10.34149-7.16015 16.9707-7.16015zm88.73633 0.13281c6.62921 0 12.33026 2.3869 16.9707 7.02734 4.77303 4.64045 7.16016 10.3415 7.16016 16.97071s-2.38713 12.32853-7.16016 17.10156c-4.64044 4.64044-10.34149 7.02734-16.9707 7.02734-6.6292 0-12.33025-2.3869-16.9707-7.02734-4.77303-4.77303-7.02735-10.47235-7.02734-17.10156 0-6.62921 2.25431-12.33026 7.02734-16.97071 4.64045-4.64044 10.3415-7.02734 16.9707-7.02734z" /></svg>